<?xml version="1.0" encoding="utf-8"?>
<!-- Generator: Adobe Illustrator 24.1.0, SVG Export Plug-In . SVG Version: 6.00 Build 0)  -->
<svg version="1.1" id="Calque_1" xmlns="http://www.w3.org/2000/svg" xmlns:xlink="http://www.w3.org/1999/xlink" x="0px" y="0px"
   viewBox="0 0 1150.58 321.41" style="enable-background:new 0 0 1150.58 321.41;" xml:space="preserve">
<style type="text/css">
  .st0{fill:#156734;}
</style>
<g>
  <path class="st0" d="M754.77,245.35c2.14-3.87,3.8-7.18,5.77-10.3c1.72-2.74,3.56-5.48,5.77-7.82c2.41-2.55,6.53-1.57,8.01,1.51
    c1.82,3.8,3.66,7.59,5.55,11.35c1.41,2.82,7.25,4.69,10.99,2.79c5.26-2.67,10.2-1.46,14.84,0.71c3.85,1.81,5.73-0.14,7.61-2.54
    c2.66-3.39,4.89-7.14,7.64-10.45c4.64-5.58,7.46-5.27,10.64,0.58c2.71-0.69,5.32-1.57,8.01-1.93c0.98-0.13,2.61,0.7,3.13,1.58
    c4.18,6.97,10.21,12.84,12.45,20.98c0.54,1.96,1.71,2.76,3.91,1.08c2.74-2.09,4.78-4.12,3.66-7.87
    c-2.37-7.97-1.17-16.01-0.37-24.04c0.28-2.79,0.32-5.6,0.57-8.39c0.17-1.93,0.66-4.16,3-4.01c1.86,0.12,4.18,0.9,5.34,2.22
    c1.88,2.15,2.86,5.07,4.49,7.49c0.61,0.92,1.98,1.95,2.94,1.89c2.3-0.15,4.61-0.74,6.81-1.47c4.87-1.61,9.7-3.36,14.51-5.15
    c3.31-1.23,6.38-1.18,9.25,1.56c3.73-5.26,8.34-3.21,13.39-1.1c0-2.11,0.31-3.63-0.05-4.96c-3.59-13.3-7.28-26.57-10.95-39.85
    c-0.84-3.03-2.38-6.49,0.96-8.65c3.08-1.99,5.95,0.27,8.12,2.36c7.75,7.5,14.88,15.53,20.21,24.99c2,3.56,3.72,7.28,5.83,10.76
    c0.62,1.02,2.16,2.1,3.27,2.08c6.97-0.11,14.01,0.02,20.89-0.96c10.14-1.45,20.11-4.03,30.24-5.57c5.28-0.8,10.74-0.34,16.12-0.58
    c1.93-0.09,3.84-0.84,5.75-0.78c2.09,0.07,3.6,1.06,4,3.58c0.69,4.36,8.79,7.04,12.02,4.12c2.25-2.04,4.45-4.14,6.67-6.23
    c0.34-0.32,0.87-0.65,0.92-1.03c0.91-7.19,7.33-8,12.03-8.4c6.84-0.58,12.45-3.37,18.36-6.03c1.86-0.84,4.07-0.88,6.09-1.41
    c2.78-0.72,5.66-1.25,8.25-2.42c4-1.81,7.67-3.33,12.39-1.98c2.64,0.75,5.92-0.58,8.88-1.16c5.27-1.03,10.51-3.02,15.77-3.07
    c4.7-0.04,7.62-1.47,10.09-5.15c2.35-3.51,3.08-7.08,2.33-11.29c-0.67-3.78-0.99-7.73-0.66-11.54c0.66-7.57-3.62-12-9.14-15.75
    c-5.22-3.54-10.62-6.79-13.78-12.61c-2.06-3.79-4.3-7.49-6.63-11.12c-4.87-7.56-12.15-11.71-20.52-14.36
    c-8.79-2.78-17.46-5.98-26.31-8.55c-4.85-1.41-9.96-1.97-14.98-2.76c-2.62-0.41-5.49-3.23-4.84-5.44c1.01-3.4,4.09-2.96,6.43-2.41
    c6.81,1.59,13.58,3.4,20.24,5.5c9.24,2.92,18.44,6,27.54,9.34c8.16,3,15.07,7.62,19.52,15.57c3.01,5.37,6.63,10.42,10.27,15.4
    c1.25,1.72,3.42,2.76,5.1,4.18c4.52,3.83,9.64,7.19,13.25,11.74c2.17,2.75,2.26,7.34,2.75,11.18c0.68,5.33,0.42,10.8,1.38,16.06
    c1.25,6.81-8.52,18.97-17.59,19.09c-4.45,0.06-9.29,0.47-13.23,2.29c-5.07,2.33-7.5,7.48-8.31,13.04
    c-1.49,10.15-2.86,20.32-4.23,30.48c-0.25,1.84-0.27,3.71-0.42,5.57c-0.73,8.9-7.02,14.24-12.91,19.68
    c-5.06,4.67-10.42,9.03-15.86,13.25c-1.3,1.01-3.47,1.38-5.17,1.23c-1.22-0.11-2.65-1.37-3.32-2.51c-0.3-0.51,0.82-2.25,1.67-2.98
    c8.26-7.08,15.16-15.34,20.5-24.74c2.37-4.17,4.23-9.02,4.8-13.74c1.2-9.84,1.43-19.81,1.92-29.73c0.06-1.15-0.8-2.34-1.44-4.1
    c-0.85,1.08-1.35,1.42-1.36,1.77c-0.52,13.16-4.1,25.52-10.15,37.13c-0.79,1.51-3.5,2.75-5.37,2.82c-3.28,0.13-4.78-2.48-6.01-5.39
    c-3.16-7.48-1.31-15.25-1.78-22.88c-0.09-1.52,0.11-3.09-0.25-4.54c-0.24-0.97-1.24-1.75-1.9-2.62c-0.9,0.86-2.28,1.57-2.62,2.62
    c-1.09,3.3-1.59,6.8-2.7,10.09c-1.03,3.05-2.53,6.02-6.59,5.59c-4.13-0.44-6.54-1.45-7.19-6.17c-0.02-0.16-0.33-0.28-0.79-0.65
    c-1.91,1.68-4.03,3.27-5.81,5.17c-3.89,4.13-9.1,4.94-14.01,2.06c-2.72-1.6-5.53-3.07-8.35-4.48c-1.61-0.8-2.74-0.49-3.52,1.46
    c-0.62,1.54-2.06,2.73-2.89,4.21c-0.58,1.05-0.76,2.33-1.08,3.52c-1,3.66-1.25,7.84-6.36,8.49c-0.67,0.08-1.37,0.84-1.83,1.45
    c-2.48,3.31-5.48,4.19-9.01,2.05c-2.58-1.56-4.9-3.56-7.23-5.51c-3.65-3.06-10.05-1.72-12.54,2.43c-1.84,3.06-3.83,6.18-6.36,8.63
    c-3.07,2.97-6.2,1.91-8.24-1.83c-0.65-1.19-2-2.36-3.28-2.76c-2.25-0.72-3.01,1.21-3.53,2.93c-2.19,7.31-8.07,8.83-14.55,9.12
    c-3.44,0.15-6.9-0.31-10.36-0.38c-0.85-0.02-2.07,0.18-2.51,0.75c-3.5,4.48-8.74,5.23-13.68,6.47c-4.97,1.25-10.11,1.88-15.08,3.13
    c-6.8,1.71-13.48,3.95-19.3,7.95c-3.53,2.42-7.16,2.29-10.71,1.1c-3.02-1.01-4.75,0.13-6.85,1.89c-1.61,1.34-3.66,2.3-5.67,2.98
    c-6.08,2.08-12.34,3.66-18.32,5.97c-4.63,1.79-7.49-1.16-10.86-2.98c-0.78-0.42-1.34-1.23-2.25-2.09
    c-0.52,1.01-0.96,1.78-1.32,2.58c-1.85,4.21-5.45,4.95-8.97,1.82c-5.87-5.22-14.82-3.62-19.52,2.92c-1.8,2.5-4.69,4.63-7.55,5.86
    c-3.41,1.46-5.61-0.46-5.93-4.17c-0.1-1.17-0.03-2.34-0.12-3.51c-0.15-2.11-1.11-2.32-2.77-1.21c-8.08,5.42-16.86,3.86-23.96-2.91
    c-2.68-2.56-7.31-3.15-11.13-4.34c-0.5-0.16-1.93,1.28-2.27,2.22c-5.17,14.24-14.04,26.04-23.99,37.22
    c-3.68,4.13-7.08,8.28-12.54,10.25c-3.75,1.36-6.81,0.06-9.41-2.08c-2.38-1.96-1.76-4.87-0.58-7.47
    c5.77-12.77,5.65-26.09,3.86-39.62c-0.61-4.58-0.78-9.22-1.12-13.49c-2.69-0.3-4.74-0.62-6.8-0.75c-7.9-0.49-15.8-0.91-23.7-1.39
    c-0.93-0.06-1.9-0.18-2.75-0.53c-2.45-1-4.01-0.23-5.07,2.11c-1.24,2.72-3.52,3.25-6.17,2.52c-2.76-0.75-4.57-2.35-4.3-5.51
    c0.05-0.58,0.31-1.21,0.18-1.74c-0.53-2.1-0.68-5.6-1.87-6.01c-4.93-1.7-8.12,0.13-9.27,4.37c-0.55,2.03-0.81,4.16-1.53,6.13
    c-0.5,1.36-1.58,3.56-2.35,3.54c-2.02-0.05-4.08-0.98-6-1.84c-0.72-0.32-1.09-1.4-1.79-2.38c-3.67,3.9-8.04,2.09-12.19,1.98
    c-1.25-0.03-2.59-0.18-3.74,0.18c-5.86,1.88-11.74,3.73-17.46,5.98c-1.82,0.72-3.75,2.37-4.57,4.09c-1.24,2.6-3.1,4.33-5.57,3.8
    c-1.86-0.4-3.35-2.56-5.6-4.42c-0.01,0.01-0.83,0.49-1.53,1.11c-0.78,0.68-1.36,1.61-2.18,2.21c-3.45,2.54-6.77,4.83-8.31,9.43
    c-1.55,4.6-5.56,7.37-10.78,6.64c-6.46-0.91-11.44,2.03-16.88,4.87c-7.8,4.08-16.02,7.78-25.37,4.43
    c-1.21-0.43-3.19,0.35-4.45,1.15c-3.33,2.11-6.54,4.42-9.61,6.89c-1.3,1.05-2.21,2.65-3.14,4.1c-2.24,3.51-4.45,7.04-6.54,10.63
    c-0.62,1.07-0.65,2.47-1.25,3.55c-0.81,1.45-1.83,3.76-2.92,3.85c-1.93,0.17-4.59-0.48-5.85-1.81c-2.69-2.85-4.58-6.45-7.04-9.55
    c-0.77-0.97-2.34-1.99-3.45-1.89c-4.99,0.44-9.93,1.37-14.91,1.92c-2.19,0.24-4.49,0.29-6.66-0.08c-3.49-0.59-4.26,1.45-4.63,4.11
    c-0.32,2.31-0.59,4.64-0.88,6.96c-0.37,2.98-1.69,5.1-4.95,5.44c-3.35,0.34-6.18-0.54-7.35-3.98c-1.43-4.2-2.7-8.46-3.82-12.75
    c-1.2-4.58-6.29-7.4-10.52-5.37c-4.88,2.34-9.48,0.19-14.07-0.71c-3.32-0.65-6.4-2.53-9.64-3.71c-0.92-0.34-2.04-0.26-3.05-0.17
    c-3.05,0.27-4.94-0.99-5.62-4c-0.1-0.46-0.21-0.92-0.35-1.36c-1.76-5.54-1.85-5.54-7.65-6.12c-2.78-0.28-5.52-0.91-8.29-1.19
    c-0.91-0.09-2.11,0.16-2.78,0.72c-4.82,4.1-11.74,3.16-12.81-5.35c-0.56-4.44-0.86-9.33-4.56-12.16
    c-5.82-4.45-11.06-9.65-18.03-12.71c-5.42-2.38-10.72-3.45-16.55-3.49c-2.66-0.02-5.26-2-7.97-2.31
    c-10.34-1.15-20.71-1.99-31.07-2.92c-11.95-1.08-23.8,0.41-35.59,1.91c-13.79,1.75-27.51,4.05-41.25,6.22
    c-2.17,0.34-4.31,1.13-6.37,1.94c-9.25,3.63-18.61,7.02-27.65,11.12c-11.06,5.01-21.86,10.59-32.72,16.03
    c-11.11,5.57-22.04,11.49-33.25,16.86c-7.32,3.51-14.84,6.7-22.52,9.32c-8.53,2.91-17.49,2.29-26.4,2.08
    c-10.94-0.25-20.84-3.73-30.4-8.56c-1.32-0.66-2.42-1.75-3.61-2.66c-1.84-1.39-3.77-2.69-5.47-4.24c-1.27-1.15-2.76-2.46-3.25-3.99
    c-1.62-4.98-2.94-10.07-4.1-15.18c-0.28-1.22,0.52-2.69,0.82-4.05c1.49,0.44,3.1,0.67,4.43,1.41c0.81,0.45,1.25,1.64,1.73,2.57
    c2.45,4.81,5.82,8.3,10.93,10.76c8.63,4.15,17.61,7.03,26.97,8.28c5.62,0.75,11.67,0.76,16.62-3.3c0.25-0.21,0.66-0.47,0.92-0.4
    c6.16,1.72,10.32-2.67,15.18-4.9c5.95-2.72,11.97-5.29,17.85-8.13c12.52-6.06,24.95-12.31,37.48-18.34
    c1.94-0.93,4.28-0.99,6.36-1.7c1.58-0.54,2.98-1.56,4.54-2.19c10.88-4.36,21.7-8.91,32.71-12.91c8.34-3.02,16.92-5.37,25.43-7.89
    c8.62-2.55,17.28-4.94,25.92-7.42c0.44-0.13,1.07-0.26,1.24-0.58c2.15-4.11,5.66-2.55,9.05-2.63c2.87-0.07,5.65-1.81,8.56-2.41
    c12.41-2.56,24.69-2.02,37.06,0.89c8.72,2.05,16.13,6.68,23.98,10.48c0.42,0.2,0.92,0.42,1.15,0.79
    c4.17,6.79,12.19,7.63,18.14,11.69c10.28,7,22.36,10.01,34.03,13.58c11.59,3.54,23.49,6.17,35.4,8.52
    c4.93,0.97,10.22,0.35,15.32,0.02c1.65-0.11,3.58-1.24,4.77-2.48c6.87-7.16,23.6-8.28,30.69,1.54c0.62,0.87,1.81,1.76,2.81,1.84
    c2.66,0.21,5.4,0.28,8.02-0.17c1.59-0.27,3.22-1.36,4.44-2.5c3.03-2.82,5.92-3.53,9.43-1.49c3.12,1.81,6.14,2.08,9.72,1.41
    c3.78-0.71,7.57-0.95,11.57,1.02c2.3,1.13,6.09-0.26,9.05-1.1c3.69-1.05,7.24-2.63,10.77-4.15c0.99-0.42,2.07-1.28,2.52-2.22
    c2.38-4.94,4.67-9.93,6.78-14.99c1.21-2.9,2.97-4.63,6.23-4.72c3.22-0.09,3.84,2.52,5.1,4.56c0.8,1.3,1.76,2.51,2.65,3.76
    c1.31-1.1,2.86-2.02,3.86-3.35c1.7-2.26,6.42-3.71,9.2-2.04c1.91,1.14,3.02,0.75,4.11-0.78c3.97-5.58,9.08-9.74,15.53-12.04
    c1.94-0.69,4.17-0.83,6.26-0.77c2.3,0.07,3.23-0.2,3.29-2.99c0.27-12.87,0.85-25.74,1.46-38.6c0.05-1.06,0.92-2.44,1.83-3.03
    c5.96-3.87,10.76-1.92,14.03,4.49c2.42,4.75,5.96,8.94,9.06,13.33c1.41,2,2.88,3.97,4.5,5.8c1.74,1.96,2.9,5.16,6.6,3.68
    c0.1-0.04,0.26-0.04,0.34,0.02c5.82,3.82,10.36-0.03,15.21-2.44c2.71-1.35,5.59-2.42,8.48-3.35c3.1-1,4.47-3,3.87-6.1
    c-0.63-3.25,1.29-4.21,3.79-4.71c2.25-0.44,4.05-0.29,4.64,2.72c0.21,1.07,2.06,2.23,3.36,2.58c2,0.54,4.23,0.14,6.26,0.61
    c5.79,1.33,10.33,4.39,13.79,9.45c4.54,6.65,11.37,10.24,18.82,13c4.63,1.72,8.88,4.46,13.4,6.51c1.9,0.86,4.04,1.28,6.12,1.6
    c1.1,0.17,2.3-0.41,3.46-0.48c6.39-0.38,10.97-4.05,15.5-8.07c1.33-1.18,3.49-1.69,5.34-1.92c0.74-0.09,1.96,1.27,2.46,2.23
    c1.04,2.02,1.62,4.28,2.63,6.32c1.71,3.43,3.44,6.88,5.5,10.11C750.44,240.94,752.38,242.65,754.77,245.35z M704.17,300.62
    c0.44,0.24,0.88,0.49,1.32,0.73c1.39-1.13,2.9-2.13,4.13-3.4c2.04-2.09,3.86-4.39,5.84-6.53c7.53-8.13,14.04-16.92,17.69-27.52
    c1.93-5.63,3.41-11.41,5.41-17.01c1.98-5.52,0.85-11.41-3.57-14.86c-0.78-0.6-2.41-0.54-3.5-0.24c-6.17,1.72-12.25,3.79-18.46,5.37
    c-4.73,1.21-5.85,1.86-5.82,6.78c0.04,6.3,0.42,12.61,0.97,18.89c0.94,10.68,1.18,21.25-2.66,31.53
    C704.78,296.34,704.6,298.53,704.17,300.62z M588.54,191.95c-0.35,0.04-0.71,0.08-1.06,0.11c-0.25,1.18-0.69,2.35-0.71,3.53
    c-0.11,8.53-0.57,17.08-0.05,25.58c0.37,6.09,1.64,12.23,3.43,18.07c0.78,2.53,3.73,5.95,5.93,6.14c3.4,0.29,7.02-1.79,10.52-2.97
    c1.39-0.47,2.65-1.61,4.04-1.73c2.43-0.22,3.07-1.45,2.63-3.49c-0.93-4.32-1.69-8.71-3.04-12.9c-3.05-9.44-10.22-16.35-15.59-24.36
    C592.78,197.15,590.58,194.6,588.54,191.95z M923.08,176.66c-0.46,0.86-0.68,1.07-0.66,1.26c0.05,0.69,0.13,1.39,0.3,2.06
    c3.68,15.41,9.13,30.47,9.48,46.57c0.02,0.73,1.1,1.98,1.79,2.06c5.2,0.62,8.45-2.68,11.45-6.21c2.38-2.79,0.77-5.46-0.48-8.11
    c-1.04-2.21-2.26-4.37-3.03-6.68c-3.27-9.85-7.98-18.87-14.98-26.61C925.7,179.63,924.48,178.23,923.08,176.66z M481.57,305.06
    c0.49,0.1,0.98,0.19,1.48,0.29c2.29-4.12,5.55-8.01,6.62-12.42c1.28-5.29,0.91-11.03,0.85-16.57c-0.05-4.9-1.94-6.06-6.69-5.59
    c-3.34,0.33-6.78,0.36-10.09-0.09c-3-0.41-3.67,0.43-3.54,3.28c0.38,8.13,3.65,15.42,6.47,22.81
    C477.8,299.72,479.91,302.3,481.57,305.06z M435.02,304.47c0.31,0,0.63,0.01,0.94,0.01c0.28-0.47,0.69-0.91,0.81-1.42
    c1.52-6.66,3.09-13.32,4.47-20.01c2-9.68-0.36-9.48-7.86-14.83c-2.81-2-6.14-1.63-8.69,0.9c-2.42,2.41-0.3,4.8,0.55,7.1
    c2.29,6.23,4.75,12.39,6.98,18.63C433.33,298,434.09,301.26,435.02,304.47z M528.67,251.49c-0.33,0.04-0.65,0.07-0.98,0.11
    c-0.41,1.71-0.62,3.51-1.26,5.13c-2.64,6.73-5.45,13.38-8.09,20.11c-0.43,1.09-0.82,2.81-0.28,3.48c0.58,0.72,2.45,1.02,3.45,0.66
    c4.69-1.68,9.33-3.53,13.84-5.64c0.72-0.34,1.21-2.44,0.91-3.47c-1.33-4.58-2.92-9.1-4.57-13.59
    C530.85,255.97,529.69,253.76,528.67,251.49z M768.94,236.24c-2.49,4.7-4.54,8.42-6.45,12.21c-2.41,4.78-1.92,10.13,1.93,13.58
    c1.68,1.51,4.63,2.4,6.87,2.19c1.51-0.14,4-2.74,3.97-4.19C775.11,252.07,773.19,244.44,768.94,236.24z M656.78,232.15
    c0.43,0.04,0.85,0.07,1.28,0.11c3.78-4.36,7.58-8.71,11.32-13.11c0.33-0.39,0.35-1.1,0.38-1.67c0.33-6.09-5.66-12.1-11.78-11.84
    c-2.16,0.09-3.27,1.26-3.1,3.37C655.46,216.73,656.14,224.44,656.78,232.15z M639.23,211.64c-4.53,1.92-8.25,3.78-12.17,5.05
    c-2.95,0.96-3.71,2.36-2.62,5.14c1.78,4.53,3.45,9.11,5.23,13.65c0.31,0.8,0.92,1.48,1.84,2.91
    C636.59,229.88,637.95,221.14,639.23,211.64z M449.51,299.14c3.79-0.26,7.02-0.26,10.17-0.74c4.15-0.64,4.93-2.5,2.94-6.36
    c-1.59-3.09-3.3-6.12-4.91-9.21c-0.64-1.24-1.14-2.55-1.99-4.5c-1.88,5.33-3.53,9.77-4.99,14.28
    C450.17,294.34,450.04,296.22,449.51,299.14z M547.12,249.41c0.41,6.49,0.53,12.04,1.21,17.53c0.39,3.17,7.16,4.85,9.22,2.31
    c1.15-1.42,2.55-4.38,1.92-5.24C555.88,259.15,551.72,254.72,547.12,249.41z M869.75,225.45c-0.52,1.75-0.85,2.56-0.99,3.39
    c-1.13,6.95,1.08,13.36,3.07,19.84c0.81,2.63,2.19,3.44,4.66,2.43c3.36-1.37,4.03-3.04,2.72-5.83c-2.17-4.61-4.16-9.29-6.29-13.91
    C872.12,229.63,871.12,227.98,869.75,225.45z M842.99,240.81c-0.49,0.05-0.97,0.1-1.46,0.15c-0.35,0.64-0.93,1.26-1.01,1.93
    c-0.48,4.04-1.22,8.1-1.08,12.13c0.06,1.67,1.77,4.19,3.25,4.65c1.51,0.47,3.92-0.75,5.43-1.9c0.97-0.74,1.76-3.01,1.32-4.04
    C847.55,249.31,845.18,245.1,842.99,240.81z M193.88,243.68c0.1,0.5,0.21,1,0.31,1.49c3.6-0.54,7.21-1.03,10.79-1.64
    c6.78-1.16,13.55-2.34,20.31-3.63c2.72-0.52,4.24-2.23,4.13-6.27C217.34,237.04,205.61,240.36,193.88,243.68z M401.55,289.02
    c0.14,0.52,0.29,1.03,0.43,1.55c3.01,0.11,6.13,0.75,9,0.16c2.5-0.52,5.64-1.92,6.72-3.9c0.73-1.35-1.32-4.57-2.71-6.53
    c-0.48-0.68-3.22-0.73-4.08-0.03C407.61,282.95,404.64,286.06,401.55,289.02z M1080.44,210.19c4.19-5.57,7.56-20.03,6.5-24.26
    c-5.27-0.12-6.34,0.68-6.46,5.65C1080.32,197.79,1080.44,203.99,1080.44,210.19z M353.52,262.51c1.45,5.04,2.79,9.68,4.42,15.32
    c3.45-4.12,6.29-7.5,9.46-11.29C362.13,265.02,357.96,263.81,353.52,262.51z M247.96,227.79c-3.02,0.94-6.27,1.24-8.5,2.91
    c-1.51,1.13-1.56,4.2-2.26,6.4c1.42,0.07,2.84,0.14,4.26,0.19c0.35,0.01,0.7-0.08,1.04-0.13
    C248.09,236.22,249.28,234.45,247.96,227.79z M689.29,237.14c-1.84-3.37-2.96-6.42-4.94-8.75c-1.84-2.16-3.81-1.26-4.64,1.57
    c-0.49,1.68-1.06,3.34-1.52,5.03c-0.44,1.64-0.07,2.71,1.94,2.8c2.05,0.1,4.08,0.55,6.13,0.59
    C687.11,238.4,687.96,237.71,689.29,237.14z M968.31,220.94c0.37,0.11,0.73,0.22,1.1,0.33c3.34-4.38,5.01-9.38,5.43-15.3
    c-1.39,0.18-2.32,0.17-3.17,0.43c-4.56,1.36-6.52,2.46-3.71,7.58c0.49,0.9,0.29,2.21,0.34,3.33
    C968.34,218.51,968.31,219.73,968.31,220.94z M396.66,273.67c-3.18-0.57-5.53-1.07-7.91-1.35c-0.46-0.06-1.18,0.63-1.51,1.14
    c-1.28,2.03-0.49,9.2,1.59,11.68C391.35,281.46,393.77,277.92,396.66,273.67z M801.63,258.69c2.71,0,5.12-0.05,7.53,0.01
    c2.55,0.06,2.71-1.44,2.57-3.44c-0.13-1.94-0.03-3.78-2.78-3.84C804.72,251.35,803.42,252.51,801.63,258.69z M790.91,261.98
    c2.28-4.34,4.21-7.87,5.95-11.5c0.33-0.68,0.18-2.08-0.31-2.51c-0.47-0.41-1.75-0.2-2.53,0.1
    C789.88,249.66,788.14,255.99,790.91,261.98z M563.87,252.92c0.48-0.02,0.96-0.03,1.44-0.05c0.97-4.47,2.01-8.93,2.84-13.43
    c0.18-0.95-0.4-2.04-0.64-3.06c-0.98,0.52-2.63,0.86-2.82,1.58c-0.86,3.28-1.49,6.65-1.8,10.03
    C562.74,249.59,563.51,251.27,563.87,252.92z M285.67,238.89c1.1-1.57,2.17-2.39,2.2-3.25c0.16-4.37-1.24-6.78-3.65-6.83
    c-1.99-0.04-5.27,3.58-4.33,5.7C280.65,236.23,283.25,237.15,285.67,238.89z M273.15,226.83c-5.16,0.17-7.58,3.15-6.02,7.49
    c0.36,1,2.1,1.9,3.32,2.08c0.8,0.11,2.48-1.07,2.58-1.83C273.36,232.11,273.15,229.56,273.15,226.83z M260.6,230.9
    c0.29-0.2,0.58-0.41,0.87-0.61c-1.02-1.31-1.86-3.47-3.11-3.75c-3.17-0.7-3.32,2.03-3.5,4.29c-0.07,0.93-0.22,1.95,0.08,2.77
    c0.34,0.95,1.37,2.54,1.71,2.45c1.32-0.37,2.73-1.08,3.63-2.09C260.83,233.34,260.52,231.95,260.6,230.9z M834.33,239.54
    c-0.45-0.07-0.91-0.13-1.36-0.2c-0.2,0.1-0.56,0.16-0.59,0.3c-1.02,4.76-2.03,9.52-2.95,14.3c-0.07,0.36,0.68,1.25,0.85,1.21
    c0.67-0.2,1.73-0.59,1.81-1.05C832.93,249.26,833.61,244.39,834.33,239.54z M304.82,240.14c0.18-0.45,0.36-0.89,0.55-1.34
    c-2.43-1.52-4.79-3.2-7.34-4.48c-0.96-0.48-2.4-0.03-3.61,0c0.69,1.33,1.06,3.41,2.12,3.85
    C299.12,239.23,302.03,239.53,304.82,240.14z M819.52,255.25c3.41-4.04,3.62-8.21,4.3-12.95
    C818.28,245.81,817.66,247.74,819.52,255.25z M51.06,300.49c2.55,2.86,6.92,3.67,10.33,2.32c0.64-0.25,1.64-1.18,1.54-1.41
    c-0.33-0.77-1.09-1.95-1.64-1.92C58.02,299.63,54.78,300.08,51.06,300.49z M67.45,298.17c0.16,0.58,0.33,1.16,0.49,1.74
    c2.25-0.36,4.59-0.5,6.71-1.25c0.57-0.2,0.51-2.24,0.88-4.23C72.19,295.99,69.82,297.08,67.45,298.17z M22.02,294.87
    c-0.12,0.37-0.24,0.74-0.36,1.11c1.93,3.22,5.53,3.67,7.57,0.29C26.66,295.77,24.34,295.32,22.02,294.87z M87.03,289.9
    c-0.19-0.41-0.38-0.82-0.58-1.23c-2.42,1.36-4.83,2.72-7.25,4.08c0.24,0.42,0.48,0.85,0.71,1.27
    C82.29,292.65,84.66,291.27,87.03,289.9z"/>
  <path class="st0" d="M222.24,63.88c-1.15,0.65-2.61,1.48-4.08,2.3c-6.68,3.72-13.38,7.42-20.04,11.17
    c-1.2,0.68-2.27,1.61-3.46,2.31c-1.08,0.64-2.39,1.76-3.34,1.54c-1.71-0.39-3.78-1.29-4.62-2.64c-0.46-0.73,0.91-3.55,2.13-4.22
    c6.94-3.85,14.16-7.19,21.12-11c5.12-2.8,9.97-6.09,14.98-9.09c2.2-1.32,4.76-2.15,6.71-3.74c5.24-4.26,10.11-8.96,15.35-13.21
    c9.32-7.56,18.67-15.11,28.27-22.31c7.13-5.35,14.95-9.51,23.54-12.27c10.11-3.24,20.19-3.4,30.49-1.4
    c5.02,0.97,10.22,1.11,15.16,2.36c6.4,1.63,12.99,3.21,18.12,7.84c2.75,2.48,5.03,5.55,8,7.68c4.78,3.41,8.89,7.79,15.82,7.72
    c11.26-0.11,22.54,0.86,33.81,1.38c0.47,0.02,1.05-0.09,1.38,0.14c1.48,1,2.88,2.11,4.32,3.18c-1.75,1.08-3.46,2.97-5.27,3.07
    c-3.2,0.17-6.45-0.95-9.7-1.15c-3.79-0.23-4.51,0.56-4.06,4.37c0.89,7.6-0.31,14.82-6.04,20.05c-4.66,4.25-10.23,7.58-15.63,10.93
    c-6.19,3.85-13.14,5.36-20.42,5.39c-1.26,0.01-2.56,0.37-3.76,0.8c-2.57,0.92-4.54,0.38-7.14-0.8c-2.75-1.25-6.64-1-9.73-0.22
    c-6.07,1.53-12.26,0.87-18.25,1.74c-8,1.15-16.17,2.08-23.14,7.63c-4.18,3.33-8.98,6.82-14.81,7.27c-1.87,0.14-4.11-0.06-5.65-0.99
    c-2.1-1.26-3.94-1.42-5.9-0.36c-3.48,1.88-6.82,1.38-10.01-0.48c-2.19-1.27-3.83-1.02-6.09,0.23c-6.73,3.7-13.96,3.97-21.33,1.94
    c-1.34-0.37-2.75-0.5-4.1-0.85c-2.26-0.6-4.07-1.62-4.4-4.33c-0.13-1.09-1.04-2.05-1.39-3.14c-0.3-0.94-0.78-2.34-0.35-2.9
    c3.35-4.31,0.14-7.27-1.98-10.4C225.53,67.61,224.02,66.03,222.24,63.88z M291.5,14.43c-1.34,0.47-2.39,0.62-3.2,1.15
    c-5.67,3.69-11.39,7.29-16.88,11.22c-6.76,4.84-8.3,10.65-5.26,18.27c0.13,0.33,0.29,0.64,0.42,0.97
    c3.31,8.66,9.55,14.58,17.69,18.58c10.22,5.01,20.85,2.56,31.39,1.42c0.53-0.06,1.02-0.54,1.54-0.79
    c6.39-3.05,10.63-8.51,14.45-14.03c2.84-4.11,4.97-9.05,6.06-13.92c1.41-6.36,0.43-12.74-3.37-18.49c-1.98-3-3.52-6.32-4.95-9.64
    c-0.88-2.05-2.21-2.93-4.27-2.89c-5.02,0.11-10.03,0.4-15.05,0.41c-3.44,0.01-4.05,1.76-3.74,4.72c0.5,4.88,0.84,9.79,1.11,14.69
    c0.55,10.01,1.05,20.02,1.44,30.04c0.04,0.98-0.54,2.54-1.27,2.86c-1.12,0.5-3.04,0.71-3.84,0.07c-1.45-1.17-2.82-2.9-3.36-4.66
    C296.44,41.56,292.14,28.79,291.5,14.43z M353.41,64.23c8.24,3.15,15.05,0.37,20.79-4.33c4.9-4.01,8.96-9.13,13-14.08
    c2.1-2.57,3.39-5.8,4.97-8.77c0.94-1.77,0.58-2.78-1.71-2.98c-3.24-0.28-6.5-0.68-9.66-1.41c-3.09-0.71-4.26,0.48-4.73,3.37
    c-0.39,2.4-0.53,5.27-1.94,6.98c-4.88,5.91-10.22,11.45-15.5,17.02C357.18,61.57,355.31,62.73,353.41,64.23z M361.98,21.94
    c-1.89,5.42-3.7,10.76-5.62,16.05c-0.56,1.53-1.54,2.9-2.13,4.42c-3.05,7.97-6.7,15.38-15.4,18.78c-0.96,0.37-1.41,2.05-2.09,3.13
    c1.39,0,3.05,0.5,4.12-0.09c2.32-1.28,4.2-3.36,6.5-4.68c7.57-4.35,13.68-10.28,18.12-17.66
    C370.16,34.12,369.38,26.77,361.98,21.94z M385.86,59.38c9.17-1.38,18.9-15.3,14.79-20.58c-0.58,0.24-1.47,0.32-1.78,0.78
    C394.49,46.15,390.19,52.77,385.86,59.38z M250.59,85.8c-1.46-1.12-2.93-1.73-3.57-2.83c-1.84-3.2-4.51-3.74-7.72-2.95
    c-0.96,0.24-2.6,0.92-2.57,1.32c0.07,1.27,0.53,3.42,1.28,3.62C241.93,86.01,245.83,88.69,250.59,85.8z M249.54,73.91
    c0.73,1.93,0.91,4.04,2.06,5.03c1.6,1.37,4.03,2.77,5.92,2.56c2.71-0.29,0.87-2.68,0.67-4.21c-0.03-0.23-0.06-0.46-0.09-0.69
    c-0.34-3.32-1.91-4.47-5.19-3.73C251.94,73.09,250.98,73.46,249.54,73.91z M251.63,60.71c2.98-1.11,5.45-1.83,7.7-2.99
    c0.72-0.37,1.41-2.15,1.1-2.82c-0.34-0.74-1.87-1.36-2.83-1.3c-2.18,0.13-4.44,0.44-6.45,1.23c-0.93,0.36-1.94,2.05-1.86,3.05
    C249.36,58.86,250.77,59.74,251.63,60.71z M276.61,75.74c-2.55,1.65-4.79,2.86-6.69,4.48c-0.49,0.42-0.32,2.68,0.23,3.04
    c1.12,0.74,2.72,0.97,4.11,0.97c0.55,0,1.42-1.1,1.59-1.83C276.24,80.68,276.28,78.9,276.61,75.74z M265.29,64.07
    c-0.3-0.48-0.61-0.96-0.91-1.45c-3.36,0.85-6.71,1.69-10.86,2.74c2.85,2.85,5.64,2.73,8.2,1.91
    C263.12,66.83,264.12,65.18,265.29,64.07z M290.11,83.44c-2.05-1.69-3.32-2.74-4.59-3.79c-0.71,0.88-2.16,2-1.96,2.6
    c0.37,1.17,1.5,2.43,2.63,2.9C286.88,85.45,288.16,84.35,290.11,83.44z M236.13,65.32c3.23-1.29,5.42-2.48,4.77-6.25
    C238.2,60.44,235.99,61.57,236.13,65.32z M245.78,68.99c-1.28-0.09-2.01-0.38-2.33-0.13c-1.21,0.94-2.34,2.01-3.37,3.15
    c-0.16,0.18,0.32,0.95,0.5,1.44c1.25-0.66,2.57-1.21,3.71-2.02C244.85,71.04,245.08,70.18,245.78,68.99z"/>
  <path class="st0" d="M945.85,70.26c-5.48-0.09-10.37-1.14-14.41-4.93c-2.83-2.65-3.87-5.96-3.36-9.52
    c0.22-1.52,1.75-3.33,3.17-4.12c4.79-2.65,9.98-4,15.53-2.85c5.83,1.21,11.81,2.1,16.25,6.66c4.28,4.39,3.87,8.1-1.56,10.82
    C957.74,68.19,951.22,71.05,945.85,70.26z"/>
</g>
</svg>
